<?xml version="1.0" encoding="UTF-8" standalone="no"?>
<!DOCTYPE svg PUBLIC "-//W3C//DTD SVG 1.1//EN"
 "http://www.w3.org/Graphics/SVG/1.1/DTD/svg11.dtd">
<!-- Generated by graphviz version 13.1.2 (20250808.2320)
 -->
<!-- Pages: 1 -->
<svg width="2317pt" height="332pt"
 viewBox="0.00 0.00 2317.00 332.00" xmlns="http://www.w3.org/2000/svg" xmlns:xlink="http://www.w3.org/1999/xlink">
<g id="graph0" class="graph" transform="scale(1 1) rotate(0) translate(4 328)">
<polygon fill="white" stroke="none" points="-4,4 -4,-328 2312.5,-328 2312.5,4 -4,4"/>
<!-- &#45;1086004836705842982 -->
<g id="node1" class="node">
<title>&#45;1086004836705842982</title>
<polygon fill="none" stroke="black" points="1656.25,-324 756.75,-324 756.75,-288 1656.25,-288 1656.25,-324"/>
<text xml:space="preserve" text-anchor="middle" x="1206.5" y="-298.62" font-family="Helvetica,sans-Serif" font-size="20.00">Concat(DescribeNumeric, DescribeNumeric, DescribeNumeric, DescribeNumeric, DescribeNumeric)</text>
</g>
<!-- 3106163735466543573 -->
<g id="node2" class="node">
<title>3106163735466543573</title>
<polygon fill="none" stroke="black" points="564.38,-252 292.62,-252 292.62,-216 564.38,-216 564.38,-252"/>
<text xml:space="preserve" text-anchor="middle" x="428.5" y="-226.62" font-family="Helvetica,sans-Serif" font-size="20.00">DescribeNumeric(Projection)</text>
</g>
<!-- 3106163735466543573&#45;&gt;&#45;1086004836705842982 -->
<g id="edge4" class="edge">
<title>3106163735466543573&#45;&gt;&#45;1086004836705842982</title>
<path fill="none" stroke="black" d="M564.46,-247.23C685.12,-258.09 863.14,-274.11 1001.14,-286.52"/>
<polygon fill="black" stroke="black" points="1000.49,-289.98 1010.76,-287.39 1001.11,-283.01 1000.49,-289.98"/>
</g>
<!-- &#45;8051461487896147119 -->
<g id="node3" class="node">
<title>&#45;8051461487896147119</title>
<polygon fill="none" stroke="black" points="463,-180 0,-180 0,-144 463,-144 463,-180"/>
<text xml:space="preserve" text-anchor="middle" x="231.5" y="-154.62" font-family="Helvetica,sans-Serif" font-size="20.00">Projection(ArrowStringConversion, PetalWidthCm)</text>
</g>
<!-- &#45;8051461487896147119&#45;&gt;3106163735466543573 -->
<g id="edge6" class="edge">
<title>&#45;8051461487896147119&#45;&gt;3106163735466543573</title>
<path fill="none" stroke="black" d="M280.7,-180.48C307.48,-190 340.81,-201.84 369.04,-211.87"/>
<polygon fill="black" stroke="black" points="367.56,-215.06 378.16,-215.11 369.91,-208.47 367.56,-215.06"/>
</g>
<!-- 350987198088350614 -->
<g id="node4" class="node">
<title>350987198088350614</title>
<polygon fill="none" stroke="black" points="1417.38,-108 995.62,-108 995.62,-72 1417.38,-72 1417.38,-108"/>
<text xml:space="preserve" text-anchor="middle" x="1206.5" y="-82.62" font-family="Helvetica,sans-Serif" font-size="20.00">ArrowStringConversion(FromMapProjectable)</text>
</g>
<!-- 350987198088350614&#45;&gt;&#45;8051461487896147119 -->
<g id="edge7" class="edge">
<title>350987198088350614&#45;&gt;&#45;8051461487896147119</title>
<path fill="none" stroke="black" d="M995.24,-106.17C842.11,-117.16 634.71,-132.05 474.68,-143.54"/>
<polygon fill="black" stroke="black" points="474.48,-140.05 464.75,-144.25 474.98,-147.03 474.48,-140.05"/>
</g>
<!-- &#45;453199610261517755 -->
<g id="node7" class="node">
<title>&#45;453199610261517755</title>
<polygon fill="none" stroke="black" points="954.25,-180 480.75,-180 480.75,-144 954.25,-144 954.25,-180"/>
<text xml:space="preserve" text-anchor="middle" x="717.5" y="-154.62" font-family="Helvetica,sans-Serif" font-size="20.00">Projection(ArrowStringConversion, PetalLengthCm)</text>
</g>
<!-- 350987198088350614&#45;&gt;&#45;453199610261517755 -->
<g id="edge10" class="edge">
<title>350987198088350614&#45;&gt;&#45;453199610261517755</title>
<path fill="none" stroke="black" d="M1084.37,-108.48C1013.2,-118.67 923.39,-131.53 850.44,-141.97"/>
<polygon fill="black" stroke="black" points="850.25,-138.46 840.85,-143.34 851.24,-145.39 850.25,-138.46"/>
</g>
<!-- &#45;6206449614179139999 -->
<g id="node9" class="node">
<title>&#45;6206449614179139999</title>
<polygon fill="none" stroke="black" points="1441,-180 972,-180 972,-144 1441,-144 1441,-180"/>
<text xml:space="preserve" text-anchor="middle" x="1206.5" y="-154.62" font-family="Helvetica,sans-Serif" font-size="20.00">Projection(ArrowStringConversion, SepalWidthCm)</text>
</g>
<!-- 350987198088350614&#45;&gt;&#45;6206449614179139999 -->
<g id="edge12" class="edge">
<title>350987198088350614&#45;&gt;&#45;6206449614179139999</title>
<path fill="none" stroke="black" d="M1206.5,-108.3C1206.5,-115.59 1206.5,-124.27 1206.5,-132.46"/>
<polygon fill="black" stroke="black" points="1203,-132.38 1206.5,-142.38 1210,-132.38 1203,-132.38"/>
</g>
<!-- 939037026524231290 -->
<g id="node11" class="node">
<title>939037026524231290</title>
<polygon fill="none" stroke="black" points="1938.25,-180 1458.75,-180 1458.75,-144 1938.25,-144 1938.25,-180"/>
<text xml:space="preserve" text-anchor="middle" x="1698.5" y="-154.62" font-family="Helvetica,sans-Serif" font-size="20.00">Projection(ArrowStringConversion, SepalLengthCm)</text>
</g>
<!-- 350987198088350614&#45;&gt;939037026524231290 -->
<g id="edge14" class="edge">
<title>350987198088350614&#45;&gt;939037026524231290</title>
<path fill="none" stroke="black" d="M1329.38,-108.48C1400.99,-118.67 1491.35,-131.53 1564.74,-141.97"/>
<polygon fill="black" stroke="black" points="1564.01,-145.4 1574.41,-143.34 1565,-138.47 1564.01,-145.4"/>
</g>
<!-- 5986999013587285207 -->
<g id="node13" class="node">
<title>5986999013587285207</title>
<polygon fill="none" stroke="black" points="2308.5,-180 1956.5,-180 1956.5,-144 2308.5,-144 2308.5,-180"/>
<text xml:space="preserve" text-anchor="middle" x="2132.5" y="-154.62" font-family="Helvetica,sans-Serif" font-size="20.00">Projection(ArrowStringConversion, Id)</text>
</g>
<!-- 350987198088350614&#45;&gt;5986999013587285207 -->
<g id="edge16" class="edge">
<title>350987198088350614&#45;&gt;5986999013587285207</title>
<path fill="none" stroke="black" d="M1417.79,-104.97C1563.11,-114.86 1760.88,-128.84 1944.98,-143.8"/>
<polygon fill="black" stroke="black" points="1944.49,-147.27 1954.74,-144.6 1945.06,-140.3 1944.49,-147.27"/>
</g>
<!-- &#45;4125993431562643907 -->
<g id="node5" class="node">
<title>&#45;4125993431562643907</title>
<polygon fill="none" stroke="black" points="1307.5,-36 1105.5,-36 1105.5,0 1307.5,0 1307.5,-36"/>
<text xml:space="preserve" text-anchor="middle" x="1206.5" y="-10.62" font-family="Helvetica,sans-Serif" font-size="20.00">FromMapProjectable</text>
</g>
<!-- &#45;4125993431562643907&#45;&gt;350987198088350614 -->
<g id="edge8" class="edge">
<title>&#45;4125993431562643907&#45;&gt;350987198088350614</title>
<path fill="none" stroke="black" d="M1206.5,-36.3C1206.5,-43.59 1206.5,-52.27 1206.5,-60.46"/>
<polygon fill="black" stroke="black" points="1203,-60.38 1206.5,-70.38 1210,-60.38 1203,-60.38"/>
</g>
<!-- 5503210585311315796 -->
<g id="node6" class="node">
<title>5503210585311315796</title>
<polygon fill="none" stroke="black" points="952.38,-252 680.62,-252 680.62,-216 952.38,-216 952.38,-252"/>
<text xml:space="preserve" text-anchor="middle" x="816.5" y="-226.62" font-family="Helvetica,sans-Serif" font-size="20.00">DescribeNumeric(Projection)</text>
</g>
<!-- 5503210585311315796&#45;&gt;&#45;1086004836705842982 -->
<g id="edge3" class="edge">
<title>5503210585311315796&#45;&gt;&#45;1086004836705842982</title>
<path fill="none" stroke="black" d="M913.91,-252.48C969.97,-262.55 1040.53,-275.21 1098.32,-285.58"/>
<polygon fill="black" stroke="black" points="1097.37,-288.97 1107.83,-287.29 1098.61,-282.08 1097.37,-288.97"/>
</g>
<!-- &#45;453199610261517755&#45;&gt;5503210585311315796 -->
<g id="edge9" class="edge">
<title>&#45;453199610261517755&#45;&gt;5503210585311315796</title>
<path fill="none" stroke="black" d="M742.23,-180.48C754.49,-189.15 769.48,-199.75 782.77,-209.15"/>
<polygon fill="black" stroke="black" points="780.67,-211.95 790.85,-214.87 784.71,-206.23 780.67,-211.95"/>
</g>
<!-- &#45;8822734856112640897 -->
<g id="node8" class="node">
<title>&#45;8822734856112640897</title>
<polygon fill="none" stroke="black" points="1342.38,-252 1070.62,-252 1070.62,-216 1342.38,-216 1342.38,-252"/>
<text xml:space="preserve" text-anchor="middle" x="1206.5" y="-226.62" font-family="Helvetica,sans-Serif" font-size="20.00">DescribeNumeric(Projection)</text>
</g>
<!-- &#45;8822734856112640897&#45;&gt;&#45;1086004836705842982 -->
<g id="edge5" class="edge">
<title>&#45;8822734856112640897&#45;&gt;&#45;1086004836705842982</title>
<path fill="none" stroke="black" d="M1206.5,-252.3C1206.5,-259.59 1206.5,-268.27 1206.5,-276.46"/>
<polygon fill="black" stroke="black" points="1203,-276.38 1206.5,-286.38 1210,-276.38 1203,-276.38"/>
</g>
<!-- &#45;6206449614179139999&#45;&gt;&#45;8822734856112640897 -->
<g id="edge11" class="edge">
<title>&#45;6206449614179139999&#45;&gt;&#45;8822734856112640897</title>
<path fill="none" stroke="black" d="M1206.5,-180.3C1206.5,-187.59 1206.5,-196.27 1206.5,-204.46"/>
<polygon fill="black" stroke="black" points="1203,-204.38 1206.5,-214.38 1210,-204.38 1203,-204.38"/>
</g>
<!-- &#45;8505239561391361245 -->
<g id="node10" class="node">
<title>&#45;8505239561391361245</title>
<polygon fill="none" stroke="black" points="1733.38,-252 1461.62,-252 1461.62,-216 1733.38,-216 1733.38,-252"/>
<text xml:space="preserve" text-anchor="middle" x="1597.5" y="-226.62" font-family="Helvetica,sans-Serif" font-size="20.00">DescribeNumeric(Projection)</text>
</g>
<!-- &#45;8505239561391361245&#45;&gt;&#45;1086004836705842982 -->
<g id="edge2" class="edge">
<title>&#45;8505239561391361245&#45;&gt;&#45;1086004836705842982</title>
<path fill="none" stroke="black" d="M1499.84,-252.48C1443.64,-262.55 1372.89,-275.21 1314.96,-285.58"/>
<polygon fill="black" stroke="black" points="1314.64,-282.08 1305.42,-287.29 1315.88,-288.97 1314.64,-282.08"/>
</g>
<!-- 939037026524231290&#45;&gt;&#45;8505239561391361245 -->
<g id="edge13" class="edge">
<title>939037026524231290&#45;&gt;&#45;8505239561391361245</title>
<path fill="none" stroke="black" d="M1673.27,-180.48C1660.65,-189.24 1645.18,-199.96 1631.52,-209.42"/>
<polygon fill="black" stroke="black" points="1629.87,-206.3 1623.65,-214.88 1633.86,-212.06 1629.87,-206.3"/>
</g>
<!-- &#45;7577776156919210048 -->
<g id="node12" class="node">
<title>&#45;7577776156919210048</title>
<polygon fill="none" stroke="black" points="2145.38,-252 1873.62,-252 1873.62,-216 2145.38,-216 2145.38,-252"/>
<text xml:space="preserve" text-anchor="middle" x="2009.5" y="-226.62" font-family="Helvetica,sans-Serif" font-size="20.00">DescribeNumeric(Projection)</text>
</g>
<!-- &#45;7577776156919210048&#45;&gt;&#45;1086004836705842982 -->
<g id="edge1" class="edge">
<title>&#45;7577776156919210048&#45;&gt;&#45;1086004836705842982</title>
<path fill="none" stroke="black" d="M1873.28,-246.87C1748.67,-257.74 1562.34,-273.98 1418.3,-286.54"/>
<polygon fill="black" stroke="black" points="1418.3,-283.02 1408.64,-287.38 1418.91,-290 1418.3,-283.02"/>
</g>
<!-- 5986999013587285207&#45;&gt;&#45;7577776156919210048 -->
<g id="edge15" class="edge">
<title>5986999013587285207&#45;&gt;&#45;7577776156919210048</title>
<path fill="none" stroke="black" d="M2101.78,-180.48C2085.96,-189.49 2066.47,-200.58 2049.49,-210.24"/>
<polygon fill="black" stroke="black" points="2048.1,-207 2041.14,-214.99 2051.57,-213.09 2048.1,-207"/>
</g>
</g>
</svg>
